<svg id="Livello_1" data-name="Livello 1" xmlns="http://www.w3.org/2000/svg" xmlns:xlink="http://www.w3.org/1999/xlink" viewBox="0 0 313 197"><defs><style>.cls-1{fill:url(#Sfumatura_senza_nome_102);}.cls-2,.cls-7{fill:none;}.cls-3{fill:#fff;}.cls-4{clip-path:url(#clip-path);}.cls-5{mask:url(#mask);}.cls-6{fill:url(#Sfumatura_senza_nome_242);}.cls-7{stroke:#fff;stroke-miterlimit:10;}</style><linearGradient id="Sfumatura_senza_nome_102" x1="-2775.45" y1="1204" x2="-2774.79" y2="1204" gradientTransform="matrix(146.43, -0.07, -0.07, -146.43, 406497.84, 176199.05)" gradientUnits="userSpaceOnUse"><stop offset="0"/><stop offset="0.24"/><stop offset="0.34" stop-color="#2f2f2f"/><stop offset="0.47" stop-color="#6d6d6d"/><stop offset="0.6" stop-color="#a1a1a1"/><stop offset="0.72" stop-color="#cacaca"/><stop offset="0.84" stop-color="#e7e7e7"/><stop offset="0.93" stop-color="#f9f9f9"/><stop offset="1" stop-color="#fff"/></linearGradient><clipPath id="clip-path"><path class="cls-2" d="M112.87,13.75a.23.23,0,0,0-.23-.23A28.15,28.15,0,0,0,84.72,41.67V101h0a19.44,19.44,0,0,1-23.45,19,19.19,19.19,0,0,1-15-15A19.43,19.43,0,0,1,78.49,86.69V55.24a47.63,47.63,0,0,0-59.33,57.53,46.71,46.71,0,0,0,34.32,34.31A47.67,47.67,0,0,0,112.87,101Z"/></clipPath><mask id="mask" x="18.02" y="53.05" width="60.79" height="61.07" maskUnits="userSpaceOnUse"><rect class="cls-1" x="18.04" y="53.06" width="60.76" height="61.04"/></mask><linearGradient id="Sfumatura_senza_nome_242" x1="-2775.32" y1="1203.85" x2="-2774.96" y2="1204.47" gradientTransform="matrix(146.43, -0.07, -0.07, -146.43, 406497.88, 176199.07)" gradientUnits="userSpaceOnUse"><stop offset="0.13" stop-opacity="0"/><stop offset="0.29" stop-opacity="0"/><stop offset="0.77" stop-color="#303030"/><stop offset="1" stop-color="#303030"/></linearGradient></defs><title>Logo_PreIcoPad</title><path class="cls-3" d="M194.92,14.83h11.33a10.73,10.73,0,0,1,7.73,3,10,10,0,0,1,3.1,7.5,10,10,0,0,1-3.1,7.49,10.69,10.69,0,0,1-7.73,3h-5v10.5h-6.31Zm6.31,15.08h4.88a4.34,4.34,0,0,0,3.21-1.32,4.42,4.42,0,0,0,1.27-3.25,4.53,4.53,0,0,0-1.27-3.28,4.36,4.36,0,0,0-3.21-1.29h-4.88Z"/><path class="cls-3" d="M260,46.34h-7.85l-7.76-11.23h-.56V46.34h-6.31V14.83h11a10.56,10.56,0,0,1,7.62,3,9.81,9.81,0,0,1,3.06,7.38,9.47,9.47,0,0,1-2,6,10.06,10.06,0,0,1-5.44,3.5Zm-11.6-25.57h-4.57v8.85h4.57a4.09,4.09,0,0,0,3.08-1.27,4.37,4.37,0,0,0,1.25-3.15A4.43,4.43,0,0,0,251.47,22,4.09,4.09,0,0,0,248.39,20.77Z"/><path class="cls-3" d="M293.57,33.45v7H305.5v5.93H287.26V14.83h18v5.94H293.57v6.75h10.19v5.93Z"/><path class="cls-3" d="M201.23,112.69h-6.31V81.18h6.31Z"/><path class="cls-3" d="M248.84,113.25A16.21,16.21,0,0,1,237,108.57a16.61,16.61,0,0,1,0-23.26,16.18,16.18,0,0,1,11.86-4.69,16.43,16.43,0,0,1,11,3.93,15.42,15.42,0,0,1,5.39,10h-6.51a9.72,9.72,0,0,0-3.52-5.66,10,10,0,0,0-6.4-2.19,10.23,10.23,0,1,0,0,20.45,10.06,10.06,0,0,0,6.4-2.18,9.77,9.77,0,0,0,3.52-5.67h6.51a15.45,15.45,0,0,1-5.39,10A16.39,16.39,0,0,1,248.84,113.25Z"/><path class="cls-3" d="M296.36,113.25a16.23,16.23,0,0,1-11.86-4.68,16.61,16.61,0,0,1,0-23.26,17.35,17.35,0,0,1,23.73,0,16.56,16.56,0,0,1,0,23.26A16.33,16.33,0,0,1,296.36,113.25Zm-7.24-9a10.52,10.52,0,1,0-2.95-7.31A9.84,9.84,0,0,0,289.12,104.24Z"/><path class="cls-3" d="M194.92,147.53h9.16a9,9,0,1,1,0,18.08h-8V179h-1.18Zm1.18,17h8a7.68,7.68,0,0,0,7.87-8,7.79,7.79,0,0,0-2.22-5.69,7.69,7.69,0,0,0-5.65-2.25h-8Z"/><path class="cls-3" d="M263.29,179H262l-4.3-9.81H239.79L235.48,179h-1.27L248,147.53h1.52ZM248.73,148.8l-8.45,19.33h16.9Z"/><path class="cls-3" d="M282.54,147.53H294.4a15.38,15.38,0,0,1,15.81,15.74A15.43,15.43,0,0,1,294.4,179H282.54ZM283.72,178H294.4a14,14,0,0,0,10.39-4.22,14.65,14.65,0,0,0-10.39-25.11H283.72Z"/><polygon class="cls-3" points="12.38 183.07 19.61 165.53 24.66 165.53 24.66 189.41 20.74 189.41 20.74 172.44 13.7 189.41 10.93 189.41 3.91 172.53 3.91 189.41 0 189.41 0 165.53 5.1 165.53 12.38 183.07"/><path class="cls-3" d="M45.33,180.62a10.31,10.31,0,0,1-.1,1.45H31.32a5.38,5.38,0,0,0,1.77,3.1,4.91,4.91,0,0,0,3.28,1.16,5.76,5.76,0,0,0,2.81-.68A4.22,4.22,0,0,0,41,183.8h4a8.55,8.55,0,0,1-3.25,4.36,9,9,0,0,1-5.4,1.67A8.45,8.45,0,0,1,30,187.18,9.73,9.73,0,0,1,30,174a8.51,8.51,0,0,1,6.38-2.64A8.65,8.65,0,0,1,42.77,174a9.21,9.21,0,0,1,2.56,6.64m-5.82-4.68a5,5,0,0,0-3.17-1.1,4.93,4.93,0,0,0-3.17,1.1,5.31,5.31,0,0,0-1.82,2.94h10a5.2,5.2,0,0,0-1.83-2.94"/><rect class="cls-3" x="48.05" y="164.48" width="3.7" height="24.93"/><path class="cls-3" d="M63.08,189.83a8.49,8.49,0,0,1-6.41-2.65,9.73,9.73,0,0,1,0-13.2,9.11,9.11,0,0,1,12.83,0,9.76,9.76,0,0,1,0,13.2,8.58,8.58,0,0,1-6.42,2.65m-3.7-5.32a4.9,4.9,0,0,0,3.7,1.57,4.82,4.82,0,0,0,3.68-1.57,6,6,0,0,0,0-7.86,4.82,4.82,0,0,0-3.68-1.57,4.9,4.9,0,0,0-3.7,1.57,5.87,5.87,0,0,0,0,7.86"/><path class="cls-3" d="M88.2,174.48v-10h3.69v24.93H88.2v-2.74a6.9,6.9,0,0,1-5.89,3.16,7.51,7.51,0,0,1-5.9-2.65,10.41,10.41,0,0,1,0-13.2,7.57,7.57,0,0,1,5.9-2.64,6.84,6.84,0,0,1,5.89,3.14M83,186.08a4.85,4.85,0,0,0,3.68-1.57,6,6,0,0,0,0-7.86,5.14,5.14,0,0,0-7.4,0,5.93,5.93,0,0,0,0,7.86A4.9,4.9,0,0,0,83,186.08"/><path class="cls-3" d="M96.59,168.77a2.17,2.17,0,0,1-1.65-.71,2.56,2.56,0,0,1,0-3.5,2.39,2.39,0,0,1,3.36,0,2.59,2.59,0,0,1,0,3.5,2.21,2.21,0,0,1-1.69.71m1.85,20.64h-3.7V171.76h3.7Z"/><polygon class="cls-3" points="107.66 171.76 111.24 171.76 111.24 175.28 107.66 175.28 107.66 189.41 103.96 189.41 103.96 175.28 100.57 175.28 100.57 171.76 103.96 171.76 103.96 167.39 107.66 166.56 107.66 171.76"/><polygon class="cls-3" points="121.61 184.63 126.49 171.76 130.6 171.76 120.83 195.98 116.84 195.98 119.57 189.27 112.48 171.76 116.71 171.76 121.61 184.63"/><path class="cls-3" d="M89.5,18.47a32.71,32.71,0,0,1,23.11-9.74h0l.22,0V.15a24.8,24.8,0,0,0-24.13,19.1C89,19,89.24,18.72,89.5,18.47Z"/><path class="cls-3" d="M112.87,13.75a.23.23,0,0,0-.23-.23A28.15,28.15,0,0,0,84.72,41.67V101h0a19.44,19.44,0,0,1-23.45,19,19.18,19.18,0,0,1-15-15A19.43,19.43,0,0,1,78.49,86.69V55.24a47.63,47.63,0,0,0-59.33,57.53,46.71,46.71,0,0,0,34.32,34.31A47.67,47.67,0,0,0,112.87,101Z"/><g class="cls-4"><g class="cls-5"><path class="cls-6" d="M18,53.07l60.76,0,0,61H66.21A48.14,48.14,0,0,1,18,66Z"/></g></g><line class="cls-7" x1="153.89" x2="153.89" y2="197"/><path class="cls-3" d="M119.72,1.33A4.1,4.1,0,0,1,122.8,0a4.05,4.05,0,0,1,3.07,1.33,4.51,4.51,0,0,1,1.27,3.22,4.58,4.58,0,0,1-1.27,3.25,4,4,0,0,1-3.07,1.35,4.09,4.09,0,0,1-3.08-1.35,4.51,4.51,0,0,1-1.27-3.23,4.48,4.48,0,0,1,1.27-3.24m.68,5.75a3.2,3.2,0,0,0,2.4,1,3.15,3.15,0,0,0,2.39-1,3.54,3.54,0,0,0,1-2.51,3.49,3.49,0,0,0-1-2.51,3.32,3.32,0,0,0-4.79,0,3.52,3.52,0,0,0-1,2.51,3.5,3.5,0,0,0,1,2.51m4.24-3.28a1.34,1.34,0,0,1-.82,1.34l1,1.68h-1l-.86-1.52h-.64V6.82h-1V2.21h1.86a1.45,1.45,0,0,1,1.09.45,1.61,1.61,0,0,1,.43,1.14m-2.4-.64v1.2h.82a.65.65,0,0,0,.45-.16.57.57,0,0,0,.16-.43.57.57,0,0,0-.61-.61Z"/></svg>