<svg id="Livello_1" data-name="Livello 1" xmlns="http://www.w3.org/2000/svg" xmlns:xlink="http://www.w3.org/1999/xlink" viewBox="0 0 30 30"><defs><style>.cls-1{clip-path:url(#clip-path);}.cls-2{fill:none;}.cls-3{isolation:isolate;}.cls-4{clip-path:url(#clip-path-2);}.cls-5{fill:url(#Sfumatura_senza_nome_36);}.cls-6{fill:url(#Sfumatura_senza_nome_35);}.cls-7{clip-path:url(#clip-path-3);}.cls-8{clip-path:url(#clip-path-4);}.cls-9{fill:url(#Sfumatura_senza_nome_36-2);}.cls-10{fill:url(#Sfumatura_senza_nome_35-2);}.cls-11{clip-path:url(#clip-path-5);}.cls-12{clip-path:url(#clip-path-6);}.cls-13{fill:url(#Sfumatura_senza_nome_36-3);}.cls-14{fill:url(#Sfumatura_senza_nome_35-3);}.cls-15{clip-path:url(#clip-path-7);}.cls-16{clip-path:url(#clip-path-8);}.cls-17{fill:url(#Sfumatura_senza_nome_36-4);}.cls-18{fill:url(#Sfumatura_senza_nome_35-4);}.cls-19{clip-path:url(#clip-path-9);}.cls-20{clip-path:url(#clip-path-10);}.cls-21{fill:url(#Sfumatura_senza_nome_36-5);}.cls-22{fill:url(#Sfumatura_senza_nome_35-5);}.cls-23{clip-path:url(#clip-path-11);}.cls-24{clip-path:url(#clip-path-12);}.cls-25{fill:url(#Sfumatura_senza_nome_36-6);}.cls-26{fill:url(#Sfumatura_senza_nome_35-6);}.cls-27{fill:#fff;}.cls-28{clip-path:url(#clip-path-13);}.cls-29{mask:url(#mask);}.cls-30{clip-path:url(#clip-path-14);}.cls-31{clip-path:url(#clip-path-15);}.cls-32{mask:url(#mask-2);}.cls-33{fill:url(#Sfumatura_senza_nome_34);}.cls-34{clip-path:url(#clip-path-16);}.cls-35{mask:url(#mask-3);}.cls-36{clip-path:url(#clip-path-17);}.cls-37{clip-path:url(#clip-path-18);}.cls-38{mask:url(#mask-4);}.cls-39{fill:url(#Sfumatura_senza_nome_34-2);}.cls-40{clip-path:url(#clip-path-19);}.cls-41{mask:url(#mask-5);}.cls-42{clip-path:url(#clip-path-20);}.cls-43{clip-path:url(#clip-path-21);}.cls-44{mask:url(#mask-6);}.cls-45{fill:url(#Sfumatura_senza_nome_34-3);}.cls-46{clip-path:url(#clip-path-22);}.cls-47{mask:url(#mask-7);}.cls-48{clip-path:url(#clip-path-23);}.cls-49{clip-path:url(#clip-path-24);}.cls-50{mask:url(#mask-8);}.cls-51{fill:url(#Sfumatura_senza_nome_34-4);}.cls-52{clip-path:url(#clip-path-25);}.cls-53{mask:url(#mask-9);}.cls-54{clip-path:url(#clip-path-26);}.cls-55{clip-path:url(#clip-path-27);}.cls-56{mask:url(#mask-10);}.cls-57{fill:url(#Sfumatura_senza_nome_34-5);}.cls-58{clip-path:url(#clip-path-28);}.cls-59{mask:url(#mask-11);}.cls-60{clip-path:url(#clip-path-29);}.cls-61{clip-path:url(#clip-path-30);}.cls-62{mask:url(#mask-12);}.cls-63{fill:url(#Sfumatura_senza_nome_34-6);}</style><clipPath id="clip-path"><rect class="cls-2" x="7.78" y="19.03" width="4.63" height="4.65"/></clipPath><clipPath id="clip-path-2"><rect class="cls-2" x="7.78" y="19.03" width="4.63" height="4.65"/></clipPath><linearGradient id="Sfumatura_senza_nome_36" x1="-6007.47" y1="2034.58" x2="-6007.39" y2="2034.58" gradientTransform="matrix(96.85, -0.04, 0.04, 96.85, 581715.58, -197280.8)" gradientUnits="userSpaceOnUse"><stop offset="0" stop-color="#1d1d1b"/><stop offset="0.24" stop-color="#1d1d1b"/><stop offset="0.29" stop-color="#31312f"/><stop offset="0.43" stop-color="#6f6f6d"/><stop offset="0.57" stop-color="#a2a2a1"/><stop offset="0.7" stop-color="#cacaca"/><stop offset="0.82" stop-color="#e7e7e7"/><stop offset="0.93" stop-color="#f9f9f9"/><stop offset="1" stop-color="#fff"/></linearGradient><linearGradient id="Sfumatura_senza_nome_35" x1="-6025.13" y1="2095.15" x2="-6025.05" y2="2095.15" gradientTransform="translate(630237.15 -219131.79) scale(104.6)" gradientUnits="userSpaceOnUse"><stop offset="0"/><stop offset="0.13"/><stop offset="0.29"/><stop offset="0.77" stop-color="#fff"/><stop offset="1" stop-color="#fff"/></linearGradient><clipPath id="clip-path-3"><rect class="cls-2" x="4.72" y="11.61" width="4.65" height="4.63" transform="translate(-6.02 5.39) rotate(-30)"/></clipPath><clipPath id="clip-path-4"><rect class="cls-2" x="4.72" y="11.61" width="4.65" height="4.63" transform="translate(-6.02 5.39) rotate(-30.03)"/></clipPath><linearGradient id="Sfumatura_senza_nome_36-2" x1="-6007.12" y1="2029.94" x2="-6007.04" y2="2029.94" gradientTransform="translate(196598 581774.62) rotate(90) scale(96.85)" xlink:href="#Sfumatura_senza_nome_36"/><linearGradient id="Sfumatura_senza_nome_35-2" x1="-6021.25" y1="2093.29" x2="-6021.17" y2="2093.29" gradientTransform="translate(629729.73 -219228.01) rotate(-0.03) scale(104.6)" xlink:href="#Sfumatura_senza_nome_35"/><clipPath id="clip-path-5"><rect class="cls-2" x="15.73" y="20.1" width="4.63" height="4.65" transform="translate(-10.4 26.84) rotate(-60)"/></clipPath><clipPath id="clip-path-6"><rect class="cls-2" x="15.73" y="20.1" width="4.63" height="4.65" transform="translate(-10.4 26.86) rotate(-60.03)"/></clipPath><linearGradient id="Sfumatura_senza_nome_36-3" x1="-6011.65" y1="2036.59" x2="-6011.58" y2="2036.59" gradientTransform="translate(582218.02 -197212.58) scale(96.85)" xlink:href="#Sfumatura_senza_nome_36"/><linearGradient id="Sfumatura_senza_nome_35-3" x1="-6028.68" y1="2092.73" x2="-6028.61" y2="2092.73" gradientTransform="translate(-218881.48 -630576.47) rotate(-90) scale(104.6)" xlink:href="#Sfumatura_senza_nome_35"/><clipPath id="clip-path-7"><rect class="cls-2" x="20.63" y="13.76" width="4.65" height="4.63" transform="translate(-4.96 13.63) rotate(-30)"/></clipPath><clipPath id="clip-path-8"><rect class="cls-2" x="20.63" y="13.76" width="4.65" height="4.63" transform="translate(-4.96 13.64) rotate(-30.03)"/></clipPath><linearGradient id="Sfumatura_senza_nome_36-4" x1="-6015.49" y1="2033.97" x2="-6015.42" y2="2033.97" gradientTransform="translate(-196958.43 -582555.74) rotate(-90) scale(96.85)" xlink:href="#Sfumatura_senza_nome_36"/><linearGradient id="Sfumatura_senza_nome_35-4" x1="-6028.36" y1="2088.44" x2="-6028.28" y2="2088.44" gradientTransform="translate(-630443.65 218751.11) rotate(179.97) scale(104.6)" xlink:href="#Sfumatura_senza_nome_35"/><clipPath id="clip-path-9"><rect class="cls-2" x="17.59" y="6.32" width="4.63" height="4.65"/></clipPath><clipPath id="clip-path-10"><rect class="cls-2" x="17.6" y="6.32" width="4.63" height="4.65"/></clipPath><linearGradient id="Sfumatura_senza_nome_36-5" x1="-6015.14" y1="2029.34" x2="-6015.07" y2="2029.34" gradientTransform="translate(-582429.5 196803.91) rotate(179.97) scale(96.85)" xlink:href="#Sfumatura_senza_nome_36"/><linearGradient id="Sfumatura_senza_nome_35-5" x1="-6024.48" y1="2086.57" x2="-6024.41" y2="2086.57" gradientTransform="translate(-630139.72 218264.12) rotate(180) scale(104.6)" xlink:href="#Sfumatura_senza_nome_35"/><clipPath id="clip-path-11"><rect class="cls-2" x="9.64" y="5.25" width="4.63" height="4.65" transform="translate(-0.58 14.14) rotate(-60)"/></clipPath><clipPath id="clip-path-12"><rect class="cls-2" x="9.64" y="5.25" width="4.63" height="4.65" transform="translate(-0.58 14.14) rotate(-60.03)"/></clipPath><linearGradient id="Sfumatura_senza_nome_36-6" x1="-6010.96" y1="2027.32" x2="-6010.88" y2="2027.32" gradientTransform="translate(-582120.59 196344.91) rotate(180) scale(96.85)" xlink:href="#Sfumatura_senza_nome_36"/><linearGradient id="Sfumatura_senza_nome_35-6" x1="-6020.93" y1="2089" x2="-6020.85" y2="2089" gradientTransform="translate(218521.04 629795.35) rotate(90) scale(104.6)" xlink:href="#Sfumatura_senza_nome_35"/><clipPath id="clip-path-13"><path class="cls-2" d="M15,16a2.14,2.14,0,0,0-2.12,2.14v4.52h0a1.49,1.49,0,0,1-1.79,1.45,1.48,1.48,0,1,1,1.31-2.54V19.2a3.32,3.32,0,0,0-1-.15,3.64,3.64,0,0,0-3.52,4.53,3.56,3.56,0,0,0,2.62,2.61A3.63,3.63,0,0,0,15,22.68V16a0,0,0,0,0,0,0h0"/></clipPath><mask id="mask" x="7.77" y="19.03" width="4.63" height="4.66" maskUnits="userSpaceOnUse"><g class="cls-1"><rect x="7.78" y="19.03" width="4.63" height="4.65"/><g class="cls-3"><g class="cls-4"><rect class="cls-5" x="7.78" y="19.03" width="4.63" height="4.65"/></g></g></g></mask><clipPath id="clip-path-14"><rect class="cls-2" x="7.78" y="19.03" width="4.63" height="4.65"/></clipPath><clipPath id="clip-path-15"><path class="cls-2" d="M7.78,19H12.4v4.65h-1A3.67,3.67,0,0,1,7.78,20Z"/></clipPath><mask id="mask-2" x="5.76" y="17.03" width="8.65" height="8.66" maskUnits="userSpaceOnUse"><rect class="cls-6" x="6.92" y="18.19" width="6.34" height="6.33" transform="translate(-13.45 19.43) rotate(-60.03)"/></mask><linearGradient id="Sfumatura_senza_nome_34" x1="-6025.13" y1="2095.15" x2="-6025.05" y2="2095.15" gradientTransform="translate(630237.09 -219131.76) scale(104.6)" gradientUnits="userSpaceOnUse"><stop offset="0"/><stop offset="0.13"/><stop offset="0.29"/><stop offset="0.77" stop-color="#303030"/><stop offset="1" stop-color="#303030"/></linearGradient><clipPath id="clip-path-16"><path class="cls-2" d="M15.87,15.52a2.15,2.15,0,0,0,.8,2.92l1,.6,2.87,1.65h0A1.49,1.49,0,0,1,20.94,23a1.46,1.46,0,0,1-1.56.41,1.48,1.48,0,0,1,0-2.82l-2.08-1.19a3.73,3.73,0,0,0-.62.79,3.63,3.63,0,0,0,2.16,5.31,3.57,3.57,0,0,0,3.57-1,3.63,3.63,0,0,0-.78-5.67L15.9,15.52h0"/></clipPath><mask id="mask-3" x="14.88" y="19.26" width="6.34" height="6.34" maskUnits="userSpaceOnUse"><g class="cls-11"><rect x="15.73" y="20.1" width="4.63" height="4.65" transform="translate(-10.4 26.84) rotate(-60)"/><g class="cls-3"><g class="cls-12"><rect class="cls-13" x="15.73" y="20.1" width="4.63" height="4.65" transform="translate(-10.4 26.86) rotate(-60.03)"/></g></g></g></mask><clipPath id="clip-path-17"><rect class="cls-2" x="15.73" y="20.1" width="4.63" height="4.65" transform="translate(-10.4 26.84) rotate(-60)"/></clipPath><clipPath id="clip-path-18"><path class="cls-2" d="M14.88,23.27l2.31-4,4,2.33-.48.83a3.67,3.67,0,0,1-5,1.34Z"/></clipPath><mask id="mask-4" x="13.72" y="18.1" width="8.66" height="8.66" maskUnits="userSpaceOnUse"><rect class="cls-14" x="14.88" y="19.26" width="6.33" height="6.34" transform="translate(-8.8 12.04) rotate(-30.03)"/></mask><linearGradient id="Sfumatura_senza_nome_34-2" x1="-6028.68" y1="2092.73" x2="-6028.61" y2="2092.73" gradientTransform="matrix(0, -104.6, 104.6, 0, -218881.45, -630576.41)" xlink:href="#Sfumatura_senza_nome_34"/><clipPath id="clip-path-19"><path class="cls-2" d="M15.89,14.51a2.16,2.16,0,0,0,2.92.77l1.05-.61L22.72,13h0a1.48,1.48,0,1,1-.54,2A1.45,1.45,0,0,1,22,14l-2.08,1.2a3.78,3.78,0,0,0,.38.94,3.64,3.64,0,0,0,5.68.78A3.54,3.54,0,0,0,27,13.32a3.63,3.63,0,0,0-5.3-2.16L15.9,14.48a0,0,0,0,0,0,0h0"/></clipPath><mask id="mask-5" x="19.78" y="12.9" width="6.35" height="6.34" maskUnits="userSpaceOnUse"><g class="cls-15"><rect x="20.63" y="13.76" width="4.65" height="4.63" transform="translate(-4.96 13.63) rotate(-30)"/><g class="cls-3"><g class="cls-16"><rect class="cls-17" x="20.63" y="13.76" width="4.65" height="4.63" transform="translate(-4.96 13.64) rotate(-30.03)"/></g></g></g></mask><clipPath id="clip-path-20"><rect class="cls-2" x="20.63" y="13.76" width="4.65" height="4.63" transform="translate(-4.96 13.63) rotate(-30)"/></clipPath><clipPath id="clip-path-21"><path class="cls-2" d="M22.1,19.24l-2.31-4,4-2.32.48.83a3.66,3.66,0,0,1-1.34,5Z"/></clipPath><mask id="mask-6" x="19.78" y="12.91" width="6.34" height="6.34" maskUnits="userSpaceOnUse"><rect class="cls-18" x="19.79" y="12.91" width="6.34" height="6.33"/></mask><linearGradient id="Sfumatura_senza_nome_34-3" x1="-6028.36" y1="2088.44" x2="-6028.28" y2="2088.44" gradientTransform="translate(-630443.58 218751.11) rotate(179.97) scale(104.6)" xlink:href="#Sfumatura_senza_nome_34"/><clipPath id="clip-path-22"><path class="cls-2" d="M15,14a2.14,2.14,0,0,0,2.12-2.14V7.32h0a1.48,1.48,0,0,1,1.79-1.44A1.44,1.44,0,0,1,20.07,7a1.48,1.48,0,0,1-2.45,1.39V10.8a3.32,3.32,0,0,0,1,.15,3.64,3.64,0,0,0,3.52-4.53,3.56,3.56,0,0,0-2.62-2.61A3.63,3.63,0,0,0,15,7.32V14l0,0h0"/></clipPath><mask id="mask-7" x="17.59" y="6.32" width="4.63" height="4.66" maskUnits="userSpaceOnUse"><g class="cls-19"><rect x="17.59" y="6.32" width="4.63" height="4.65"/><g class="cls-3"><g class="cls-20"><rect class="cls-21" x="17.59" y="6.32" width="4.63" height="4.65"/></g></g></g></mask><clipPath id="clip-path-23"><rect class="cls-2" x="17.59" y="6.32" width="4.63" height="4.65"/></clipPath><clipPath id="clip-path-24"><path class="cls-2" d="M22.22,11H17.6V6.32h1A3.67,3.67,0,0,1,22.22,10Z"/></clipPath><mask id="mask-8" x="15.58" y="4.32" width="8.65" height="8.66" maskUnits="userSpaceOnUse"><rect class="cls-22" x="16.74" y="5.48" width="6.34" height="6.33" transform="translate(2.47 21.57) rotate(-60.03)"/></mask><linearGradient id="Sfumatura_senza_nome_34-4" x1="-6024.48" y1="2086.57" x2="-6024.41" y2="2086.57" gradientTransform="translate(-630139.65 218264.09) rotate(180) scale(104.6)" xlink:href="#Sfumatura_senza_nome_34"/><clipPath id="clip-path-25"><path class="cls-2" d="M14.13,14.48a2.15,2.15,0,0,0-.8-2.92l-1-.6L9.42,9.31h0A1.49,1.49,0,0,1,9.06,7a1.46,1.46,0,0,1,1.56-.41,1.48,1.48,0,0,1,0,2.82l2.08,1.19a3.44,3.44,0,0,0,.62-.79,3.63,3.63,0,0,0-2.16-5.31,3.57,3.57,0,0,0-3.57,1,3.63,3.63,0,0,0,.78,5.67l5.75,3.32h0"/></clipPath><mask id="mask-9" x="8.78" y="4.4" width="6.34" height="6.34" maskUnits="userSpaceOnUse"><g class="cls-23"><rect x="9.64" y="5.25" width="4.63" height="4.65" transform="translate(-0.58 14.14) rotate(-60)"/><g class="cls-3"><g class="cls-24"><rect class="cls-25" x="9.64" y="5.25" width="4.63" height="4.65" transform="translate(-0.58 14.14) rotate(-60.03)"/></g></g></g></mask><clipPath id="clip-path-26"><rect class="cls-2" x="9.64" y="5.25" width="4.63" height="4.65" transform="translate(-0.58 14.14) rotate(-60)"/></clipPath><clipPath id="clip-path-27"><path class="cls-2" d="M15.12,6.73l-2.31,4-4-2.33.48-.83a3.67,3.67,0,0,1,5-1.34Z"/></clipPath><mask id="mask-10" x="7.62" y="3.24" width="8.66" height="8.66" maskUnits="userSpaceOnUse"><rect class="cls-26" x="8.79" y="4.4" width="6.33" height="6.34" transform="translate(-2.19 7) rotate(-30.03)"/></mask><linearGradient id="Sfumatura_senza_nome_34-5" x1="-6020.93" y1="2089" x2="-6020.85" y2="2089" gradientTransform="matrix(0, 104.6, -104.6, 0, 218521.02, 629795.29)" xlink:href="#Sfumatura_senza_nome_34"/><clipPath id="clip-path-28"><path class="cls-2" d="M14.11,15.49a2.16,2.16,0,0,0-2.92-.77l-1,.61L7.28,17h0a1.48,1.48,0,1,1,.54-2A1.45,1.45,0,0,1,8,16l2.08-1.2a3.78,3.78,0,0,0-.38-.94A3.64,3.64,0,0,0,4,13.11a3.54,3.54,0,0,0-1,3.57,3.63,3.63,0,0,0,5.3,2.16l5.75-3.32a0,0,0,0,0,0,0h0"/></clipPath><mask id="mask-11" x="3.87" y="10.76" width="6.35" height="6.34" maskUnits="userSpaceOnUse"><g class="cls-7"><rect x="4.72" y="11.61" width="4.65" height="4.63" transform="translate(-6.02 5.39) rotate(-30)"/><g class="cls-3"><g class="cls-8"><rect class="cls-9" x="4.72" y="11.61" width="4.65" height="4.63" transform="translate(-6.02 5.39) rotate(-30.03)"/></g></g></g></mask><clipPath id="clip-path-29"><rect class="cls-2" x="4.72" y="11.61" width="4.65" height="4.63" transform="translate(-6.02 5.39) rotate(-30)"/></clipPath><clipPath id="clip-path-30"><path class="cls-2" d="M7.9,10.76l2.31,4-4,2.32-.48-.83a3.66,3.66,0,0,1,1.34-5Z"/></clipPath><mask id="mask-12" x="3.87" y="10.76" width="6.34" height="6.34" maskUnits="userSpaceOnUse"><rect class="cls-10" x="3.87" y="10.76" width="6.34" height="6.33"/></mask><linearGradient id="Sfumatura_senza_nome_34-6" x1="-6021.25" y1="2093.29" x2="-6021.17" y2="2093.29" gradientTransform="translate(629729.67 -219228) rotate(-0.03) scale(104.6)" xlink:href="#Sfumatura_senza_nome_34"/></defs><title>ALL WEB LOGOS</title><path class="cls-27" d="M15,16a0,0,0,0,0,0,0,2.14,2.14,0,0,0-2.12,2.14v4.52h0a1.49,1.49,0,0,1-1.79,1.45,1.48,1.48,0,0,1,.31-2.93,1.49,1.49,0,0,1,1,.39V19.2a3.32,3.32,0,0,0-1-.15,3.64,3.64,0,0,0-3.52,4.53,3.56,3.56,0,0,0,2.62,2.61A3.63,3.63,0,0,0,15,22.68Z"/><g class="cls-28"><g class="cls-29"><g class="cls-30"><g class="cls-31"><g class="cls-32"><rect class="cls-33" x="6.92" y="18.19" width="6.34" height="6.33" transform="translate(-13.45 19.43) rotate(-60.03)"/></g></g></g></g></g><path class="cls-27" d="M15.9,15.52h0a2.15,2.15,0,0,0,.8,2.92l1,.6,2.87,1.65h0A1.49,1.49,0,0,1,20.94,23a1.46,1.46,0,0,1-1.56.41,1.48,1.48,0,0,1,0-2.82l-2.08-1.19a3.44,3.44,0,0,0-.62.79,3.63,3.63,0,0,0,2.16,5.31,3.57,3.57,0,0,0,3.57-1,3.63,3.63,0,0,0-.78-5.67Z"/><g class="cls-34"><g class="cls-35"><g class="cls-36"><g class="cls-37"><g class="cls-38"><rect class="cls-39" x="14.88" y="19.26" width="6.33" height="6.34" transform="translate(-8.8 12.04) rotate(-30.03)"/></g></g></g></g></g><path class="cls-27" d="M15.9,14.48a0,0,0,0,0,0,0,2.16,2.16,0,0,0,2.92.77l1.05-.61L22.72,13h0a1.48,1.48,0,1,1-.54,2A1.45,1.45,0,0,1,22,14l-2.08,1.2a3.78,3.78,0,0,0,.38.94,3.64,3.64,0,0,0,5.68.78A3.54,3.54,0,0,0,27,13.32a3.63,3.63,0,0,0-5.3-2.16Z"/><g class="cls-40"><g class="cls-41"><g class="cls-42"><g class="cls-43"><g class="cls-44"><rect class="cls-45" x="19.79" y="12.91" width="6.34" height="6.33"/></g></g></g></g></g><path class="cls-27" d="M15,14l0,0a2.14,2.14,0,0,0,2.12-2.14V7.32h0a1.48,1.48,0,0,1,1.79-1.44A1.44,1.44,0,0,1,20.07,7a1.48,1.48,0,0,1-2.45,1.39V10.8a3.32,3.32,0,0,0,1,.15,3.64,3.64,0,0,0,3.52-4.53,3.56,3.56,0,0,0-2.62-2.61A3.63,3.63,0,0,0,15,7.32Z"/><g class="cls-46"><g class="cls-47"><g class="cls-48"><g class="cls-49"><g class="cls-50"><rect class="cls-51" x="16.74" y="5.48" width="6.34" height="6.33" transform="translate(2.47 21.57) rotate(-60.03)"/></g></g></g></g></g><path class="cls-27" d="M14.1,14.48h0a2.15,2.15,0,0,0-.8-2.92l-1-.6L9.42,9.31h0A1.49,1.49,0,0,1,9.06,7a1.46,1.46,0,0,1,1.56-.41,1.48,1.48,0,0,1,0,2.82l2.08,1.19a3.44,3.44,0,0,0,.62-.79,3.63,3.63,0,0,0-2.16-5.31,3.57,3.57,0,0,0-3.57,1,3.63,3.63,0,0,0,.78,5.67Z"/><g class="cls-52"><g class="cls-53"><g class="cls-54"><g class="cls-55"><g class="cls-56"><rect class="cls-57" x="8.79" y="4.4" width="6.33" height="6.34" transform="translate(-2.19 7) rotate(-30.03)"/></g></g></g></g></g><path class="cls-27" d="M14.1,15.52a0,0,0,0,0,0,0,2.16,2.16,0,0,0-2.92-.77l-1,.61L7.28,17h0a1.48,1.48,0,1,1,.54-2A1.45,1.45,0,0,1,8,16l2.08-1.2a3.78,3.78,0,0,0-.38-.94A3.64,3.64,0,0,0,4,13.11a3.54,3.54,0,0,0-1,3.57,3.63,3.63,0,0,0,5.3,2.16Z"/><g class="cls-58"><g class="cls-59"><g class="cls-60"><g class="cls-61"><g class="cls-62"><rect class="cls-63" x="3.87" y="10.76" width="6.34" height="6.33"/></g></g></g></g></g><path class="cls-27" d="M15,29A14,14,0,1,1,29,15,14,14,0,0,1,15,29ZM15,3A12,12,0,1,0,27,15,12,12,0,0,0,15,3Z"/></svg>